{"title":"La Peste (2018) S01 E06 (Finale) - 720p x265 HEVC - SPA (ENG SUB","magnet":"magnet:?xt=urn:btih:c1efce2640a444230e99c7662baaec34ac7971d1&dn=La+Peste+%282018%29+S01+E06+%28Finale%29+-+720p+x265+HEVC+-+SPA+%28ENG+SUB&tr=udp%3A%2F%2Ftracker.leechers-paradise.org%3A6969&tr=udp%3A%2F%2Fzer0day.ch%3A1337&tr=udp%3A%2F%2Fopen.demonii.com%3A1337&tr=udp%3A%2F%2Ftracker.coppersurfer.tk%3A6969&tr=udp%3A%2F%2Fexodus.desync.com%3A6969","uploader":"BRSHNKV","categoryP":"video","categoryS":"hd___tv_shows","size":"458580352","seeders":"7","leechers":"5","description":" <a href=\"http://www.imdb.com/title/tt5868826/?ref_=nv_sr_1\" rel=\"nofollow\" target=\"_NEW\">http://www.imdb.com/title/tt5868826/?ref_=nv_sr_1</a>\r\n\r\n\r\n\r\nTech:\r\n\r\nFormat                                   : MPEG-4\r\nFormat profile                           : Base Media / Version 2\r\nCodec ID                                 : mp42\r\nFile size                                : 437 MiB\r\nDuration                                 : 48mn 0s\r\nOverall bit rate mode                    : Variable\r\nOverall bit rate                         : 1 273 Kbps\r\nMovie name                               : La Peste S01 E06 - 720p x265 HEVC [BRSHNKV]\r\nEncoded date                             : UTC 2018-04-04 22:21:29\r\nTagged date                              : UTC 2018-04-04 22:21:29\r\nWriting application                      : HandBrake 20160211184813-ffd8cb1-master 2016021301\r\n\r\nVideo\r\nID                                       : 1\r\nFormat                                   : HEVC\r\nFormat/Info                              : High Efficiency Video Coding\r\nFormat profile                           : Main <a href=\"/cdn-cgi/l/email-protection\" class=\"__cf_email__\" data-cfemail=\"1a2b2a5a5629342b\">[email&#xA0;protected]</a>@Main\r\nCodec ID                                 : hev1\r\nCodec ID/Info                            : High Efficiency Video Coding\r\nDuration                                 : 48mn 0s\r\nBit rate                                 : 1 102 Kbps\r\nWidth                                    : 1 280 pixels\r\nHeight                                   : 720 pixels\r\nDisplay aspect ratio                     : 16:9\r\nFrame rate mode                          : Constant\r\nFrame rate                               : 25.000 fps\r\nColor space                              : YUV\r\nChroma subsampling                       : 4:2:0\r\nBit depth                                : 10 bits\r\nBits/(Pixel*Frame)                       : 0.048\r\nStream size                              : 379 MiB (87%)\r\nWriting library                          : x265 1.9:[Mac OS X][clang 7.0.2][64 bit] 10bit\r\nEncoded date                             : UTC 2018-04-04 22:21:29\r\nTagged date                              : UTC 2018-04-04 22:21:29\r\nColor range                              : Limited\r\nColor primaries                          : BT.709\r\nTransfer characteristics                 : BT.709\r\nMatrix coefficients                      : BT.709\r\n\r\nAudio\r\nID                                       : 2\r\nFormat                                   : AAC\r\nFormat/Info                              : Advanced Audio Codec\r\nFormat profile                           : LC\r\nCodec ID                                 : 40\r\nDuration                                 : 48mn 0s\r\nBit rate mode                            : Variable\r\nBit rate                                 : 165 Kbps\r\nChannel(s)                               : 2 channels\r\nChannel positions                        : Front: L R\r\nSampling rate                            : 44.1 KHz\r\nCompression mode                         : Lossy\r\nStream size                              : 56.8 MiB (13%)\r\nTitle                                    : Stereo / Stereo\r\nLanguage                                 : Spanish\r\nEncoded date                             : UTC 2018-04-04 22:21:29\r\nTagged date                              : UTC 2018-04-04 22:21:29","last_updated":"2018-04-07T13:40:44.218Z","parsed":{"xt":"urn:btih:c1efce2640a444230e99c7662baaec34ac7971d1","dn":"La Peste (2018) S01 E06 (Finale) - 720p x265 HEVC - SPA (ENG SUB","tr":["udp://exodus.desync.com:6969","udp://open.demonii.com:1337","udp://tracker.coppersurfer.tk:6969","udp://tracker.leechers-paradise.org:6969","udp://zer0day.ch:1337"],"infoHash":"c1efce2640a444230e99c7662baaec34ac7971d1","infoHashBuffer":{"type":"Buffer","data":[193,239,206,38,64,164,68,35,14,153,199,102,43,170,236,52,172,121,113,209]},"name":"La Peste (2018) S01 E06 (Finale) - 720p x265 HEVC - SPA (ENG SUB","announce":["udp://exodus.desync.com:6969","udp://open.demonii.com:1337","udp://tracker.coppersurfer.tk:6969","udp://tracker.leechers-paradise.org:6969","udp://zer0day.ch:1337"],"urlList":[]}}